<?xml version="1.0" encoding="utf-8"?>
<!-- Generator: Adobe Illustrator 26.3.1, SVG Export Plug-In . SVG Version: 6.00 Build 0)  -->
<svg version="1.1" id="Layer_1" xmlns="http://www.w3.org/2000/svg" xmlns:xlink="http://www.w3.org/1999/xlink" x="0px" y="0px"
	 viewBox="0 0 144 208" style="enable-background:new 0 0 144 208; fill: white;" xml:space="preserve">
<g id="PLANET_BOTTOM">
  <animateTransform attributeName="transform" begin="0s" dur="8s" type="rotate" from="0 72.351 146.321" to="360 72.351 146.321" repeatCount="indefinite" />
	<path d="M61,105.7c9.1-2.5,18.8-1.9,27.5,1.7c0.1,0,0.3,0.1,0.4,0.1c0.6,0,1-0.4,1-1c0-0.4-0.2-0.8-0.6-0.9
		c-5.4-2.2-11.2-3.4-17-3.3c-4,0-8,0.5-11.9,1.6c-0.5,0.1-0.8,0.7-0.7,1.2C59.9,105.6,60.5,105.9,61,105.7L61,105.7z"/>
	<path d="M48.8,111.2c0.2,0,0.4-0.1,0.5-0.2c2.2-1.4,4.6-2.7,7-3.7c0.5-0.2,0.8-0.8,0.5-1.3c-0.2-0.5-0.8-0.8-1.3-0.5
		c-2.6,1.1-5,2.3-7.4,3.9c-0.5,0.3-0.6,0.9-0.3,1.4C48.1,111,48.4,111.2,48.8,111.2z"/>
	<path d="M117.7,123.2L117.7,123.2c-12.8-25.1-43.4-35-68.5-22.3s-35,43.4-22.3,68.5c2.8,5.6,6.7,10.6,11.4,14.8
		c0.1,0.1,0.2,0.2,0.3,0.2c16.8,15,41.6,17.1,60.7,5.1c0.1,0,0.2-0.1,0.2-0.2l0,0C121.9,175.4,129.7,146.6,117.7,123.2z M72.3,97.5
		c17.9,0,34.3,9.7,42.9,25.4c-14.7,4-30.1,3.8-44.7-0.3c-12.9-3.8-26.5-4.5-39.7-2C39.8,106.2,55.5,97.5,72.3,97.5z M25.6,160.8
		c20.1-8.9,43.6-3.9,58.3,12.5l13.5,15.1c-4.4,2.6-9.3,4.6-14.3,5.7l-7.1-5.6c-10.3-8.2-24.2-10.5-36.6-6
		C32.9,176.6,28.2,169.1,25.6,160.8z M41.1,184c11.5-3.7,24.2-1.5,33.7,6.1l5.7,4.6c-2.7,0.5-5.4,0.7-8.1,0.7
		C60.9,195.3,49.9,191.3,41.1,184z M99.1,187.3L85.3,172c-10-11.2-24.2-17.6-39.2-17.6c-7.3,0-14.4,1.5-21.1,4.4
		c-2.7-10.3-2-21.2,2.1-31.1c0.1,0.1,0.3,0.1,0.5,0.2c13.8,0,27.1,5,37.5,14c10.8,9.3,24.6,14.5,38.9,14.5c5.7,0,11.3-0.8,16.7-2.4
		C118.5,167.6,110.7,179.8,99.1,187.3L99.1,187.3z M121,151.8c-18.9,5.9-39.6,1.6-54.6-11.4c-10.7-9.3-24.3-14.4-38.4-14.5
		c0.5-1,1-2.1,1.6-3.1c13.4-2.8,27.3-2.2,40.5,1.6c7.7,2.2,15.7,3.3,23.7,3.3c7.6,0,15.2-1,22.5-3.1c3.4,6.7,5.1,14.2,5.1,21.7
		C121.3,148.2,121.2,150,121,151.8L121,151.8z"/>
	<path d="M87.9,145.3l-2.2-0.6c-0.5-0.2-1.1,0.1-1.2,0.7c-0.2,0.5,0.1,1.1,0.7,1.2c0,0,0,0,0.1,0l2.2,0.6c0.1,0,0.2,0,0.3,0
		c0.6,0.1,1.1-0.3,1.1-0.9C88.9,145.8,88.5,145.3,87.9,145.3L87.9,145.3z"/>
	<path d="M115.9,146.8c-0.1-0.5-0.7-0.9-1.2-0.8c0,0,0,0,0,0c-6.8,1.6-13.9,1.8-20.8,0.6c-0.5-0.1-1.1,0.3-1.1,0.8
		c-0.1,0.5,0.3,1.1,0.8,1.1c3.1,0.5,6.2,0.8,9.3,0.8c4.1,0,8.3-0.5,12.3-1.4C115.7,147.8,116,147.3,115.9,146.8
		C115.9,146.8,115.9,146.8,115.9,146.8z"/>
</g>
<g>
  <animate attributeName="opacity" type="opacity" begin="0s" dur="1.6s" values="0; 1; 0" repeatCount="indefinite" />
<path id="STAR_R" d="M130.1,100.4c-1.8-0.5-3.2-1.9-3.8-3.7c-0.1-0.4-0.5-0.7-1-0.7c-0.5,0-0.9,0.3-1,0.7c-0.5,1.8-1.9,3.2-3.7,3.7
	c-0.4,0.1-0.7,0.5-0.7,1c0,0.4,0.3,0.8,0.7,0.9c1.8,0.5,3.2,1.9,3.7,3.7c0.1,0.4,0.5,0.7,1,0.7c0.5,0,0.9-0.3,1-0.7
	c0.6-1.8,1.9-3.2,3.7-3.7c0.4-0.1,0.7-0.5,0.7-0.9C130.8,100.9,130.5,100.5,130.1,100.4z M125.4,103.4c-0.5-0.8-1.3-1.5-2.1-2.1
	c0.8-0.6,1.5-1.3,2.1-2.1c0.6,0.8,1.3,1.5,2.1,2.1C126.7,101.9,126,102.6,125.4,103.4z"/>
</g>
<g>
  <animate attributeName="opacity" type="opacity" begin="0.8s" dur="1.5s" values="0; 1; 0" repeatCount="indefinite" />
<path id="STAR_L-2" d="M16.7,103.3c0-0.5-0.3-0.9-0.7-1c-1.8-0.5-3.2-1.9-3.7-3.7c-0.1-0.4-0.5-0.7-1-0.7c-0.4,0-0.8,0.3-0.9,0.7
	c-0.6,1.8-1.9,3.2-3.7,3.7c-0.4,0.1-0.7,0.5-0.7,1c0,0.5,0.3,0.9,0.7,1c1.8,0.5,3.2,1.9,3.8,3.7c0.1,0.4,0.5,0.7,0.9,0.7
	c0.5,0,0.9-0.3,1-0.7c0.5-1.8,1.9-3.2,3.7-3.7C16.4,104.1,16.7,103.7,16.7,103.3z M11.3,105.4c-0.6-0.8-1.3-1.5-2.1-2.1
	c0.8-0.6,1.5-1.3,2.1-2.1c0.5,0.8,1.3,1.5,2.1,2.1C12.5,103.8,11.8,104.5,11.3,105.4z"/>
</g>
<g>
  <animate attributeName="opacity" type="opacity" begin="0.3s" dur="1.2s" values="0; 1; 0" repeatCount="indefinite" />
<path id="STAR-B" d="M28.7,183.7c-3-0.9-5.3-3.2-6.2-6.2c-0.2-0.5-0.7-0.8-1.3-0.7c-0.3,0.1-0.6,0.3-0.7,0.7c-0.9,3-3.2,5.3-6.2,6.2
	c-0.5,0.2-0.8,0.7-0.7,1.3c0.1,0.3,0.3,0.6,0.7,0.7c3,0.9,5.3,3.2,6.2,6.2c0.2,0.5,0.7,0.8,1.3,0.7c0.3-0.1,0.6-0.3,0.7-0.7
	c0.9-3,3.2-5.3,6.2-6.2c0.5-0.2,0.8-0.7,0.7-1.3C29.2,184.1,29,183.8,28.7,183.7z M21.5,189c-1-1.8-2.5-3.3-4.3-4.3
	c1.8-1,3.3-2.5,4.3-4.3c1,1.8,2.5,3.3,4.4,4.3C24,185.7,22.5,187.2,21.5,189z"/>
</g>
<g>
  <animate attributeName="opacity" type="opacity" begin="0.5s" dur="1s" values="0; 1; 0" repeatCount="indefinite" />
<path id="STAR_L-1" d="M29.3,83.8c-0.1-0.4-0.5-0.7-1-0.7c-0.5,0-0.9,0.3-1,0.7c-0.9,2.9-3.1,5.2-6,6.1c-0.5,0.2-0.8,0.7-0.7,1.2
	c0.1,0.3,0.4,0.6,0.7,0.7c2.9,0.9,5.2,3.2,6.1,6.1c0.1,0.4,0.5,0.7,1,0.7c0.4,0,0.8-0.3,1-0.7c0.9-2.9,3.2-5.2,6.1-6.1
	c0.5-0.2,0.8-0.7,0.7-1.2c-0.1-0.3-0.4-0.6-0.7-0.7C32.5,89,30.2,86.7,29.3,83.8z M28.3,95c-1-1.8-2.5-3.2-4.2-4.2
	c1.8-1,3.2-2.5,4.2-4.2c1,1.8,2.5,3.2,4.2,4.2C30.8,91.8,29.3,93.3,28.3,95z"/>
</g>
<g id="PLANET_BACK">
  <animateTransform attributeName="transform" begin="0s" dur="3s" type="rotate" from="0 121 28" to="-360 121 28" repeatCount="indefinite" />
	<path d="M121.1,38.7c2.8,0,5.6-1.1,7.6-3.1c0.2-0.2,0.2-0.4,0-0.6c-0.2-0.2-0.4-0.2-0.6,0c-1.9,1.8-4.4,2.8-7,2.8
		c-5.6,0-10.2-4.6-10.2-10.2s4.6-10.2,10.2-10.2c0.2,0,0.4,0,0.6,0c0.2,0,0.4-0.1,0.5-0.4c0-0.2-0.1-0.4-0.4-0.5c0,0,0,0,0,0
		c-0.2,0-0.5,0-0.7,0c-6.1,0-11,4.9-11,11S115.1,38.7,121.1,38.7z"/>
	<path d="M130.7,31c-0.2,0.5-0.4,1-0.6,1.4c-0.1,0.2,0,0.5,0.2,0.6c0,0,0,0,0,0c0.1,0,0.1,0.1,0.2,0.1c0.2,0,0.3-0.1,0.4-0.2
		c0.3-0.5,0.5-1,0.7-1.6c0.1-0.2,0-0.5-0.2-0.6C131.1,30.7,130.8,30.8,130.7,31C130.8,31,130.7,31,130.7,31L130.7,31z"/>
	<path d="M131.7,29.2c0.2,0,0.4-0.2,0.4-0.4c0-0.4,0.1-0.7,0.1-1.1c0-1.9-0.5-3.7-1.4-5.4c-0.1-0.2-0.4-0.3-0.6-0.2
		c-0.2,0.1-0.3,0.4-0.2,0.6c1,1.8,1.4,3.9,1.2,6C131.2,29,131.4,29.2,131.7,29.2C131.6,29.2,131.7,29.2,131.7,29.2z"/>
	<path d="M135.2,37.3c1.9-2.8,3-6.2,2.9-9.6c0-9.4-7.6-17-17-17c-2.9,0-5.8,0.8-8.4,2.2c-0.2,0.1-0.3,0.4-0.2,0.6
		c0.1,0.2,0.4,0.3,0.6,0.2c0,0,0,0,0,0c2.4-1.4,5.2-2.1,8-2.1c8.9,0,16.2,7.2,16.2,16.2c0,3.2-1,6.4-2.8,9.1
		c-0.1,0.2-0.1,0.5,0.1,0.6S135.1,37.5,135.2,37.3C135.2,37.3,135.2,37.3,135.2,37.3L135.2,37.3z"/>
	<path d="M111.1,14.5c-0.1-0.2-0.4-0.2-0.6-0.1c0,0,0,0,0,0c-0.3,0.3-0.6,0.5-0.9,0.8c-0.2,0.2-0.2,0.4,0,0.6c0.2,0.2,0.4,0.2,0.6,0
		l0,0c0.3-0.3,0.6-0.5,0.9-0.8C111.2,15,111.3,14.7,111.1,14.5C111.1,14.5,111.1,14.5,111.1,14.5z"/>
	<path d="M121.1,44.7c1.3,0,2.6-0.1,3.9-0.4c0.2-0.1,0.4-0.3,0.3-0.5c-0.1-0.2-0.3-0.4-0.5-0.3c-1.2,0.3-2.4,0.4-3.7,0.4
		c-8.9,0-16.2-7.2-16.2-16.2c0-3.4,1.1-6.7,3.1-9.5c0.2-0.2,0.1-0.4,0-0.6c-0.2-0.2-0.4-0.1-0.6,0c0,0,0,0-0.1,0.1
		c-2.1,2.9-3.2,6.4-3.2,10C104.1,37.1,111.8,44.7,121.1,44.7z"/>
	<path d="M116.6,26.7c-0.1,0.2,0.1,0.5,0.3,0.5c0.2,0.1,0.5-0.1,0.5-0.3c0,0,0,0,0,0c0.5-2,2.5-3.3,4.5-2.8c2,0.5,3.3,2.5,2.8,4.5
		c-0.5,2-2.5,3.3-4.5,2.8c-1.1-0.3-2-1-2.5-2c-0.1-0.2-0.3-0.3-0.6-0.2c-0.2,0.1-0.3,0.3-0.2,0.6c0,0,0,0,0,0.1
		c0.6,1.3,1.8,2.2,3.1,2.5c0.3,0.1,0.7,0.1,1.1,0.1c2.6,0,4.6-2.1,4.6-4.7c0-2.6-2.1-4.6-4.7-4.6C119,23.1,117.1,24.6,116.6,26.7
		L116.6,26.7z"/>
	<path d="M134.6,41.4c0-2.2-1.8-4-4-4c-2.2,0-4,1.8-4,4c0,2.2,1.8,4,4,4c0,0,0,0,0,0C132.8,45.4,134.6,43.6,134.6,41.4z M127.4,41.4
		c0-1.8,1.4-3.2,3.2-3.2c1.8,0,3.2,1.4,3.2,3.2s-1.4,3.2-3.2,3.2c0,0,0,0,0,0C128.8,44.5,127.4,43.1,127.4,41.4z"/>
	<path d="M127,21.9c1.6,0,3-1.3,3-3s-1.3-3-3-3s-3,1.3-3,3c0,0,0,0,0,0C124,20.6,125.3,21.9,127,21.9z M127,16.8
		c1.2,0,2.1,0.9,2.1,2.1S128.2,21,127,21c-1.2,0-2.1-0.9-2.1-2.1v0C124.9,17.7,125.8,16.8,127,16.8z"/>
</g>
<g id="CAT_STAR">
  <animate attributeName="opacity" type="opacity" begin="0s" dur="3s" values="0; 1; 0" repeatCount="indefinite" />
	<path d="M88.7,54.3l0.9,2.5c0,0.1,0.1,0.2,0.2,0.2l2.2,1c0.3,0.1,0.3,0.6,0,0.8l-2.2,1c-0.1,0-0.2,0.1-0.2,0.2l-0.9,2.5
		c-0.1,0.4-0.6,0.4-0.7,0l-0.9-2.5c0-0.1-0.1-0.2-0.2-0.2l-2.2-1c-0.3-0.1-0.3-0.6,0-0.8l2.2-1c0.1,0,0.2-0.1,0.2-0.2l0.9-2.5
		C88.1,54,88.6,54,88.7,54.3z"/>
	<path d="M99.9,42.9l0.7,1.9c0,0.1,0.1,0.1,0.2,0.2l1.7,0.8c0.2,0.1,0.2,0.5,0,0.6l-1.7,0.8c-0.1,0-0.1,0.1-0.2,0.2l-0.7,1.9
		c-0.1,0.3-0.4,0.3-0.5,0l-0.7-1.9c0-0.1-0.1-0.1-0.2-0.2l-1.7-0.8c-0.2-0.1-0.2-0.5,0-0.6l1.7-0.8c0.1,0,0.1-0.1,0.2-0.2l0.7-1.9
		C99.5,42.6,99.8,42.6,99.9,42.9z"/>
	<circle cx="86.4" cy="47.2" r="2"/>
	<ellipse cx="97.9" cy="59.1" rx="0.8" ry="0.8"/>
</g>
<g id="CAT">
  <animateTransform attributeName="transform" trype="translate" begin="0s" dur="1s" values="0 0;0 -1.5;0 0" repeatCount="indefinite"  />
	<path d="M66.2,63.8C66.2,63.8,66.2,63.8,66.2,63.8c-0.6,0-1.1-0.3-1.4-0.7c0.3-0.2,0.5-0.5,0.6-0.7c0.2-0.3,0.1-0.7-0.2-0.9
		c-0.3-0.2-0.7-0.1-0.9,0.2c-0.2,0.3-0.4,0.5-0.5,0.5c-0.1-0.1-0.4-0.3-0.6-0.6c-0.2-0.3-0.6-0.3-0.9-0.1c-0.3,0.2-0.3,0.6-0.1,0.9
		c0.1,0.1,0.3,0.4,0.7,0.7c-0.3,0.4-0.8,0.7-1.4,0.7c-0.4,0-0.7,0.3-0.7,0.7c0,0.4,0.3,0.7,0.7,0.7h0c0.9,0,1.8-0.4,2.4-1.2
		c0.6,0.7,1.4,1.2,2.4,1.2h0c0.4,0,0.7-0.3,0.7-0.7C66.9,64.1,66.6,63.8,66.2,63.8L66.2,63.8z"/>
	<path d="M56.6,64.4C56.6,64.4,56.6,64.4,56.6,64.4l-3.2,0c-0.4,0-0.7-0.3-0.7-0.7c0-0.4,0.3-0.7,0.7-0.7l3.2,0
		c0.4,0,0.7,0.3,0.7,0.7C57.2,64.1,56.9,64.4,56.6,64.4z"/>
	<path d="M56.6,66.7C56.6,66.7,56.6,66.7,56.6,66.7l-3.2,0c-0.4,0-0.7-0.3-0.7-0.7c0-0.4,0.3-0.7,0.7-0.7l3.2,0
		c0.4,0,0.7,0.3,0.7,0.7C57.3,66.4,57,66.7,56.6,66.7L56.6,66.7z"/>
	<path d="M74.3,64.5C74.3,64.5,74.3,64.5,74.3,64.5l-3.2,0c-0.4,0-0.7-0.3-0.7-0.7c0-0.4,0.3-0.7,0.7-0.7h0l3.2,0
		c0.4,0,0.7,0.3,0.7,0.7C75,64.2,74.7,64.5,74.3,64.5z"/>
	<path d="M74.3,66.8C74.3,66.8,74.3,66.8,74.3,66.8l-3.2,0c-0.4,0-0.7-0.3-0.7-0.7c0-0.4,0.3-0.7,0.7-0.7h0l3.2,0
		c0.4,0,0.7,0.3,0.7,0.7C75,66.5,74.7,66.8,74.3,66.8L74.3,66.8z"/>
	<path d="M52.8,52.6c-0.1,0-0.1,0-0.2,0c-0.5-0.1-0.9-0.6-1.1-1.5c0,0-0.6-2.6,0.5-3.3c1-0.7,3.2,0.6,3.3,0.7c0.8,0.5,1.2,1,1.1,1.5
		c-0.1,0.5-0.6,1-1.6,1.7C54,52.3,53.3,52.6,52.8,52.6z M52.9,48.9c-0.2,0.4-0.1,1.8,0.2,2.4c0.5-0.2,1.6-1,2-1.4
		C54.6,49.5,53.3,48.9,52.9,48.9C52.9,48.9,52.9,48.9,52.9,48.9z M52.5,48.3L52.5,48.3L52.5,48.3z"/>
	<path d="M75,52.2c-0.5,0-1.1-0.3-2-1c-0.9-0.7-1.4-1.4-1.5-1.8c-0.1-0.5,0.3-1,1.1-1.4c0,0,2.3-1.3,3.3-0.5c1,0.8,0.3,3.2,0.2,3.3
		C76,51.7,75.6,52.2,75,52.2C75.1,52.2,75.1,52.2,75,52.2L75,52.2z M72.9,49.3c0.3,0.4,1.4,1.3,1.9,1.5c0.2-0.6,0.5-1.9,0.3-2.3
		C74.7,48.5,73.4,48.9,72.9,49.3z M75.2,48.5L75.2,48.5L75.2,48.5z"/>
	<path d="M102.1,71c-1.5-2-3.4-3.3-5.6-3.7c-1.9-0.3-3.8,0.1-5.3,1.1c-1.7,1.1-2.8,2.8-3.2,4.8c-0.4,2.1-0.1,4.2,1.1,6.2
		c0.5,0.8,0.4,1.2,0.3,1.4C88,78,85.8,75.1,83,72.5c-1.3-1.2-2.7-2.4-4.2-3.3c1.4-1.7,2.1-3.7,2.1-5.8c0-3-0.8-6-2.2-8.8
		c1.1-3.5,2-9.4-0.9-11c-2.4-1.4-5.8,0.7-7.8,1.9c-0.2,0.1-0.5,0.3-0.7,0.4C67.6,45.3,66,45,64.2,45c0,0,0,0,0,0
		c-2,0-3.9,0.4-5.8,1.2c-0.2-0.1-0.5-0.3-0.8-0.5c-2-1.2-5-3.1-7.2-2.1c-1.6,0.7-2.4,2.3-2.4,4.8c0,1.9,0.6,4.2,1,6.1
		c-1.3,2.5-2.1,5.8-2.1,9c0,3.7,2.2,6.9,6.4,9.1c1,0.6,2.1,1,3.2,1.4c-0.3,1.5-0.4,3.3-0.4,5.2c0,1.5,0.1,2.8,0.4,4.1l1.8,12.2
		L58.1,96c-0.2,0.6-0.1,1.2,0.3,1.7c0.4,0.5,0.9,0.8,1.5,0.8h3.8c0.2,0,0.3,0,0.5-0.1c0.1,0.1,0.3,0.1,0.5,0.1h3.8
		c0.6,0,1.2-0.3,1.5-0.8c0.4-0.5,0.4-1.1,0.3-1.7L70,95.5c0.6,0.1,1.3,0.2,2,0.3c0,0,0,0,0,0c0.1,1.7,1.5,2.8,3.3,2.8h8.4
		c2,0,3.7-1.5,4-3.4c2.1-1.5,3.5-4.3,3.6-7c0,0,0,0,0,0c0.4-0.2,0.8-0.4,1.3-0.6c1.8-1.1,3.1-2.7,3.7-4.7c0.5-1.6,0.7-4-1-7
		c-0.4-0.7-0.3-1.2-0.1-1.4c0.2-0.1,0.7,0.2,1.3,0.9c1.2,1.6,3.4,1.9,5,0.7c0.8-0.6,1.3-1.4,1.4-2.3C102.9,72.7,102.7,71.8,102.1,71
		L102.1,71z M54.4,70.6c-2.4-1.3-5.2-3.6-5.2-7.2c0-3,0.7-6,2-8.3l0.2-0.4l-0.1-0.4c-0.5-1.9-2.1-7.9,0-8.7c0.1-0.1,0.3-0.1,0.5-0.1
		c1.3,0,3.5,1.4,4.7,2.1c1.3,0.8,1.8,1.1,2.4,0.8c0.1,0,0.2-0.1,0.3-0.1l-0.1,3.4c0,0.6,0.5,1.1,1.1,1.1c0,0,0,0,0,0
		c0.6,0,1.1-0.5,1.1-1.1l0.1-4.1c0.5-0.1,1-0.2,1.5-0.3l0.1,7.5c0,0.6,0.5,1.1,1.1,1.1c0,0,0,0,0,0c0.6,0,1.1-0.5,1.1-1.1l-0.1-7.5
		c0.5,0,1,0.1,1.5,0.2l-0.1,4.1c0,0.6,0.5,1.1,1.1,1.1c0,0,0,0,0,0c0.6,0,1.1-0.5,1.1-1.1l0.1-3.6c0.1,0,0.2,0.1,0.3,0.1
		c0.6,0.2,1,0,2.2-0.7c1.3-0.8,4.4-2.6,5.6-1.9c0.9,0.5,1.3,4.2-0.3,8.9l-0.1,0.4l0.2,0.4c1.4,2.6,2.1,5.4,2.1,8.1
		c0,1.9-0.8,3.6-2.3,5.1c-3,3-8.6,4.6-12.4,4.6c0,0-0.1,0-0.1,0C61.7,73.1,57.8,72.4,54.4,70.6z M89.1,87.8
		C89.1,87.9,89.1,87.9,89.1,87.8c0,0.1,0,0.1,0,0.2c0,0,0,0,0,0c0,0,0,0,0,0c0,2.2-1.2,4.5-3,5.5c-0.3,0.2-0.5,0.6-0.5,0.9
		c0,1-0.8,1.9-1.9,1.9h-8.4c-0.5,0-1.1-0.1-1.1-0.8c0.1-0.2,0.6-0.6,1.3-0.9c0,0,0.1,0,0.1,0l1.2-0.6c0.5-0.2,0.7-0.8,0.6-1.3
		c-0.2-0.6-0.7-0.8-1-0.9c-0.7-0.2-1.2-0.5-1.2-1.5c0-2.5,2.5-4.1,6.4-4.3c0.6,0,1.1-0.5,1.1-1.1s-0.5-1.1-1.1-1.1
		c-2.4,0.1-4.5,0.7-6,1.8c-1.6,1.2-2.5,2.8-2.5,4.7c0,1.2,0.4,2.1,1,2.6c-0.4,0.2-0.7,0.5-1,0.7c-0.9-0.1-1.8-0.2-2.6-0.4l1.2-8.2
		c0.1-0.6-0.3-1.2-0.9-1.2c-0.6-0.1-1.2,0.3-1.2,0.9l-1.5,10.5c0,0.2,0,0.3,0,0.5l0.2,0.5h-2.4l-0.9-10.5c-0.1-0.6-0.6-1.1-1.2-1
		c-0.6,0.1-1.1,0.6-1,1.2l0,0c0,0,0,0,0,0l0,10.3h-2.3l0.2-0.5c0.1-0.2,0.1-0.3,0-0.5l-2.1-14.2c0,0,0-0.1,0-0.1
		c-0.1-0.6-0.1-1.2-0.1-1.9c0-1.7,0.1-3.2,0.3-4.6c2,0.5,3.8,0.7,5.3,0.7c0,0,0.1,0,0.1,0c4,0,9.6-1.5,13.1-4.5
		c1.5,1,2.9,2.1,4.3,3.4C86.1,78.4,89,83.7,89.1,87.8C89.1,87.8,89.1,87.8,89.1,87.8L89.1,87.8z M100.6,73.4
		c-0.1,0.4-0.2,0.7-0.5,0.9c-0.6,0.5-1.5,0.3-1.9-0.3c-1.6-2.1-3.2-2.1-4.2-1.4c-1.1,0.7-1.7,2.4-0.6,4.3c1.3,2.2,1.2,4.1,0.8,5.2
		c-0.4,1.4-1.4,2.6-2.8,3.4c-0.1,0.1-0.2,0.1-0.3,0.2c-0.2-0.9-0.4-1.8-0.8-2.7c0.2-0.1,0.3-0.3,0.5-0.5c1.3-1.4,0.8-3.1,0.2-4.2
		c-0.9-1.5-1.2-3.1-0.8-4.6c0.3-1.4,1.1-2.6,2.3-3.4c2.1-1.4,5.4-1.3,7.9,2C100.6,72.6,100.7,73,100.6,73.4L100.6,73.4z"/>
	<path d="M74.9,77.5c-0.4,0-0.7-0.3-0.7-0.7v-1.3c0-0.4,0.3-0.7,0.7-0.7c0.4,0,0.7,0.3,0.7,0.7v1.3C75.6,77.2,75.3,77.5,74.9,77.5z"
		/>
	<path d="M81.3,79.9c-0.4,0-0.7-0.3-0.7-0.7v-1.3c0-0.4,0.3-0.7,0.7-0.7c0.4,0,0.7,0.3,0.7,0.7v1.3C81.9,79.6,81.6,79.9,81.3,79.9z"
		/>
	<path d="M77.9,80.7c-0.4,0-0.7-0.3-0.7-0.7v-1.3c0-0.4,0.3-0.7,0.7-0.7c0.4,0,0.7,0.3,0.7,0.7v1.3C78.6,80.4,78.3,80.7,77.9,80.7z"
		/>
	<path d="M57.9,59.5c0,0.8-0.7,1.5-1.5,1.5c-0.8,0-1.5-0.7-1.5-1.5c0-0.8,0.7-1.5,1.5-1.5C57.2,58.1,57.9,58.7,57.9,59.5z"/>
	<path d="M72.7,59.5c0,0.8-0.7,1.5-1.5,1.5s-1.5-0.7-1.5-1.5c0-0.8,0.7-1.5,1.5-1.5C72,58.1,72.7,58.7,72.7,59.5z"/>
</g>
</svg>
