<svg xmlns="http://www.w3.org/2000/svg" viewBox="0 0 1440 320">
  <path
    fill="#01113c"
    fill-opacity="1"
    d="M0,224L30,192C60,160,120,96,180,80C240,64,300,96,360,138.7C420,181,480,235,540,229.3C600,224,660,160,720,144C780,128,840,160,900,197.3C960,235,1020,277,1080,277.3C1140,277,1200,235,1260,208C1320,181,1380,171,1410,165.3L1440,160L1440,0L1410,0C1380,0,1320,0,1260,0C1200,0,1140,0,1080,0C1020,0,960,0,900,0C840,0,780,0,720,0C660,0,600,0,540,0C480,0,420,0,360,0C300,0,240,0,180,0C120,0,60,0,30,0L0,0Z"
  ></path>
</svg>